<svg xmlns="http://www.w3.org/2000/svg" width="111" height="66" fill="none"><path fill="#FE8C59" d="M21.626 44.327c0-11.593 9.398-20.992 20.992-20.992H89.6c11.594 0 20.992 9.399 20.992 20.992 0 11.594-9.398 20.992-20.992 20.992H42.618c-11.594 0-20.992-9.398-20.992-20.992Z"/><path fill="#fff" d="M48.869 36.26h2.492v11.746c0 1.062-.21 1.971-.631 2.726a4.21 4.21 0 0 1-1.756 1.731c-.755.394-1.64.59-2.653.59-.933 0-1.772-.169-2.516-.509a4.14 4.14 0 0 1-1.756-1.48c-.426-.653-.639-1.446-.639-2.379h2.484c0 .459.105.855.315 1.19.216.334.51.596.882.784.378.184.809.275 1.294.275.529 0 .977-.11 1.343-.331a2.15 2.15 0 0 0 .85-.995c.194-.437.29-.971.29-1.602V36.26Zm9.324 16.842c-.787 0-1.5-.145-2.136-.436a3.598 3.598 0 0 1-1.513-1.287c-.366-.56-.55-1.248-.55-2.063 0-.7.135-1.278.405-1.73.27-.454.634-.812 1.092-1.077.458-.264.97-.463 1.537-.598a15.26 15.26 0 0 1 1.731-.308l1.812-.21c.464-.06.801-.154 1.012-.283.21-.13.315-.34.315-.631v-.057c0-.706-.2-1.254-.599-1.642-.393-.388-.981-.582-1.763-.582-.815 0-1.456.18-1.925.542-.464.356-.785.752-.963 1.189l-2.273-.518c.27-.755.663-1.364 1.18-1.828a4.792 4.792 0 0 1 1.805-1.02 7.044 7.044 0 0 1 2.144-.323 7.6 7.6 0 0 1 1.577.178c.56.113 1.084.324 1.57.63.49.308.892.748 1.205 1.32.312.566.469 1.302.469 2.208v8.251h-2.362V51.13h-.097c-.157.312-.391.62-.704.922-.313.302-.715.553-1.206.752-.49.2-1.078.3-1.763.3Zm.526-1.941c.669 0 1.24-.132 1.715-.397.48-.264.844-.609 1.092-1.035.253-.431.38-.892.38-1.383v-1.602c-.086.086-.253.167-.502.243a7.79 7.79 0 0 1-.833.186 97.25 97.25 0 0 1-.914.137l-.744.097c-.47.06-.898.16-1.286.3-.383.14-.69.342-.922.606-.227.26-.34.604-.34 1.036 0 .599.22 1.052.663 1.359.442.302 1.006.453 1.69.453Zm13.834 1.917c-1.203 0-2.238-.272-3.107-.817-.862-.55-1.526-1.308-1.99-2.273-.463-.965-.695-2.071-.695-3.317 0-1.262.237-2.376.712-3.34.474-.972 1.143-1.73 2.006-2.274.863-.545 1.88-.817 3.05-.817.943 0 1.785.175 2.523.526.74.345 1.335.83 1.788 1.456.459.625.731 1.356.817 2.192h-2.354a2.82 2.82 0 0 0-.89-1.505c-.458-.42-1.073-.63-1.844-.63-.674 0-1.265.177-1.772.533-.501.351-.892.852-1.173 1.505-.28.647-.42 1.413-.42 2.298 0 .906.137 1.688.412 2.346.275.657.664 1.167 1.165 1.529.507.36 1.103.541 1.788.541.458 0 .874-.083 1.246-.25.377-.173.693-.418.946-.736.26-.319.44-.702.542-1.15h2.354a4.573 4.573 0 0 1-.784 2.153 4.516 4.516 0 0 1-1.756 1.488c-.728.361-1.583.542-2.564.542Zm9.688-4.465-.016-2.953h.42l4.951-5.258h2.896l-5.646 5.986h-.38l-2.225 2.225Zm-2.225 4.214V36.26h2.419v16.567h-2.419Zm7.847 0-4.45-5.905 1.667-1.69 5.752 7.595h-2.969Z"/><path fill="#FE8C59" d="M30.473 10.966 2.647.841a1.264 1.264 0 0 0-1.619 1.62l10.119 27.844a1.266 1.266 0 0 0 2.365.038l4.857-12.15 12.142-4.86a1.264 1.264 0 0 0 .592-1.902 1.265 1.265 0 0 0-.592-.465h-.038Z"/></svg>