<svg xmlns="http://www.w3.org/2000/svg" width="87" height="59" fill="none"><path fill="#3117C5" d="M.396 41.51c0-9.389 7.611-17 17-17h37c9.389 0 17 7.611 17 17s-7.611 17-17 17h-37c-9.389 0-17-7.611-17-17Z"/><path fill="#fff" d="M16.834 34.919h2.397L23.4 45.095h.153L27.72 34.92h2.397v13.09h-1.88v-9.472h-.12l-3.862 9.454h-1.56l-3.86-9.46h-.122v9.479h-1.879V34.919Zm15.821 13.09v-9.817h1.911v9.818h-1.91Zm.965-11.332c-.332 0-.618-.111-.856-.333a1.08 1.08 0 0 1-.352-.805c0-.315.117-.584.352-.805.238-.226.524-.34.856-.34.333 0 .616.114.85.34.24.221.358.49.358.805 0 .311-.119.58-.358.805a1.193 1.193 0 0 1-.85.333Zm5.095 8.003-.012-2.333h.332l3.912-4.155h2.288l-4.461 4.73h-.3l-1.759 1.758Zm-1.758 3.33V34.919h1.912v13.09h-1.911Zm6.2 0-3.515-4.666 1.317-1.336 4.545 6.002h-2.346Zm7.467.198c-.967 0-1.8-.207-2.499-.62a4.206 4.206 0 0 1-1.61-1.758c-.376-.758-.563-1.647-.563-2.665 0-1.006.187-1.892.562-2.66.38-.766.908-1.365 1.585-1.796.682-.43 1.48-.645 2.391-.645.554 0 1.091.092 1.61.275a3.9 3.9 0 0 1 1.4.863c.414.392.74.901.979 1.527.238.623.358 1.379.358 2.27v.677h-7.805v-1.432h5.932c0-.502-.102-.948-.307-1.336a2.32 2.32 0 0 0-.863-.927c-.366-.225-.797-.338-1.291-.338-.537 0-1.006.132-1.406.396-.397.26-.703.6-.92 1.023-.214.417-.32.871-.32 1.361v1.119c0 .656.115 1.214.345 1.675.234.46.56.811.978 1.054.417.239.905.358 1.464.358.362 0 .692-.05.99-.153.299-.107.556-.264.774-.473a2.06 2.06 0 0 0 .498-.774l1.81.326c-.146.533-.406 1-.78 1.4a3.78 3.78 0 0 1-1.4.927c-.559.217-1.196.326-1.912.326Z"/><path fill="#3117C5" d="M63.014 8.829 85 .829a.999.999 0 0 1 1.28 1.28l-7.996 22a1 1 0 0 1-1.869.03l-3.837-9.6-9.594-3.84a.999.999 0 0 1 0-1.87h.03Z"/></svg>