<svg xmlns="http://www.w3.org/2000/svg" width="187" height="58" fill="none"><path fill="#5235EF" d="M.495 36.37c0-11.594 9.399-20.992 20.992-20.992h111.984c11.593 0 20.992 9.398 20.992 20.991 0 11.594-9.399 20.992-20.992 20.992H21.487C9.894 57.361.495 47.963.495 36.37Z"/><path fill="#fff" d="M24.774 45.092c-.942 0-1.788-.167-2.537-.5a4.175 4.175 0 0 1-1.78-1.491c-.437-.653-.655-1.446-.655-2.38v-.323h2.48v.322c0 .453.104.85.311 1.19.215.342.508.605.88.79.377.178.811.267 1.3.267.527 0 .976-.11 1.346-.333.371-.223.653-.55.846-.98.193-.437.29-.97.29-1.601V28.296h2.48v11.757c0 1.06-.204 1.969-.612 2.725a4.13 4.13 0 0 1-1.713 1.724c-.742.393-1.62.59-2.636.59Zm13.125.033c-1.165 0-2.184-.267-3.06-.8-.867-.535-1.542-1.284-2.024-2.248-.474-.964-.712-2.083-.712-3.359 0-1.29.238-2.417.712-3.381.482-.972 1.157-1.724 2.025-2.258.875-.534 1.894-.801 3.059-.801 1.171 0 2.19.267 3.058.8.868.535 1.543 1.287 2.025 2.259.482.964.723 2.09.723 3.381 0 1.276-.241 2.395-.723 3.36-.482.963-1.157 1.712-2.025 2.246-.867.534-1.887.801-3.058.801Zm0-2.035c.763 0 1.394-.2 1.89-.601.497-.4.864-.93 1.102-1.59a6.287 6.287 0 0 0 .367-2.18c0-.802-.123-1.536-.367-2.203-.238-.668-.605-1.201-1.102-1.602-.496-.4-1.127-.6-1.89-.6-.757 0-1.383.2-1.88.6-.49.4-.857.934-1.102 1.602a6.355 6.355 0 0 0-.367 2.202c0 .786.123 1.513.367 2.18.245.66.612 1.19 1.102 1.591.497.4 1.123.6 1.88.6Zm12.635 2.024c-1.008 0-1.906-.256-2.692-.767-.786-.52-1.401-1.257-1.846-2.214-.445-.964-.668-2.113-.668-3.448 0-1.35.227-2.503.679-3.46.452-.956 1.072-1.687 1.858-2.19.786-.505 1.675-.757 2.67-.757.778 0 1.4.13 1.868.39.474.251.842.548 1.101.89.267.34.47.64.612.9h.144v-6.162h2.403v16.573h-2.347v-1.935h-.2c-.141.26-.349.56-.623.9-.275.342-.649.642-1.124.902-.467.252-1.078.378-1.835.378Zm.523-2.058c.697 0 1.286-.185 1.768-.556.482-.37.846-.886 1.09-1.546.253-.66.379-1.424.379-2.291 0-.868-.123-1.624-.367-2.27-.245-.652-.608-1.156-1.09-1.512-.482-.364-1.076-.545-1.78-.545-.727 0-1.331.189-1.813.567-.482.378-.846.894-1.09 1.546-.245.653-.367 1.39-.367 2.214 0 .83.122 1.58.367 2.247.244.66.608 1.182 1.09 1.568.49.386 1.094.578 1.813.578Zm9.9 6.463a4.58 4.58 0 0 1-.99-.078 2.735 2.735 0 0 1-.668-.19l.59-1.968.166.045c.616.155 1.135.144 1.557-.034.43-.17.79-.649 1.08-1.435l.3-.823-4.539-12.602h2.592l3.137 9.655h.133l3.148-9.655h2.592l-5.117 14.082c-.237.652-.537 1.2-.9 1.646a3.42 3.42 0 0 1-1.313 1.012c-.505.23-1.094.345-1.769.345Zm16.594-4.65V28.296h2.503v7.208h8.253v-7.208h2.503v16.573h-2.503V37.65h-8.253v7.22H77.55Zm21.556.256c-1.216 0-2.269-.263-3.159-.79a5.286 5.286 0 0 1-2.057-2.224c-.475-.964-.712-2.088-.712-3.37 0-1.276.233-2.4.7-3.37.475-.972 1.139-1.729 1.992-2.27.86-.549 1.868-.823 3.025-.823.705 0 1.387.115 2.047.345.66.23 1.253.593 1.78 1.09.526.497.941 1.142 1.245 1.935.312.794.467 1.75.467 2.87v.868h-9.888v-1.814h8.643l-1.124.601c0-.764-.118-1.438-.356-2.024-.237-.586-.593-1.042-1.068-1.368-.467-.334-1.049-.5-1.746-.5-.697 0-1.294.166-1.79.5-.49.333-.865.775-1.124 1.323-.26.549-.39 1.15-.39 1.802v1.235c0 .853.149 1.576.445 2.169.297.593.709 1.045 1.235 1.357.534.311 1.153.467 1.858.467.46 0 .875-.067 1.246-.2.378-.133.704-.334.978-.6.275-.268.482-.598.623-.99l2.292.433a4.214 4.214 0 0 1-.979 1.758c-.467.504-1.057.897-1.769 1.179-.704.274-1.509.411-2.413.411Zm9.699-4.471-.033-2.948h.434l4.95-5.272h2.892l-5.64 6.006h-.4l-2.203 2.214Zm-2.224 4.215V28.296h2.402v16.573h-2.402Zm7.831 0-4.45-5.895 1.669-1.702 5.762 7.597h-2.981Zm6.751-16.573v16.573h-2.403V28.296h2.403Zm6.373 16.84c-.786 0-1.498-.144-2.136-.434a3.569 3.569 0 0 1-1.512-1.29c-.371-.563-.556-1.25-.556-2.058 0-.704.133-1.279.4-1.724a3.065 3.065 0 0 1 1.101-1.079c.46-.267.972-.467 1.535-.6a16.324 16.324 0 0 1 1.735-.312 94.894 94.894 0 0 0 1.813-.211c.46-.06.794-.152 1.002-.278.215-.134.322-.345.322-.634v-.056c0-.704-.2-1.25-.601-1.635-.393-.386-.978-.578-1.757-.578-.808 0-1.45.178-1.924.534-.467.348-.79.745-.968 1.19l-2.28-.523c.274-.756.671-1.364 1.19-1.824a4.942 4.942 0 0 1 1.802-1.024 7.059 7.059 0 0 1 2.136-.322c.496 0 1.023.06 1.579.178a4.563 4.563 0 0 1 1.568.634c.497.304.901.741 1.213 1.312.311.571.467 1.31.467 2.214v8.253h-2.369v-1.702h-.089c-.149.305-.382.609-.701.913-.311.304-.712.556-1.201.756-.49.2-1.079.3-1.769.3Zm.523-1.935c.675 0 1.249-.13 1.724-.39a2.845 2.845 0 0 0 1.09-1.045c.252-.43.378-.886.378-1.368v-1.613c-.089.082-.256.16-.5.234a6.691 6.691 0 0 1-.835.189c-.311.052-.615.1-.912.144-.296.037-.545.067-.745.09-.467.066-.893.17-1.279.31a2.165 2.165 0 0 0-.934.601c-.23.26-.345.605-.345 1.035 0 .6.222 1.053.667 1.357.445.304 1.009.456 1.691.456Z"/><path fill="#6349EE" d="M157.223 10.602 185.049.477a1.262 1.262 0 0 1 1.663.915c.053.234.037.479-.044.705L176.549 29.94a1.267 1.267 0 0 1-1.189.836 1.261 1.261 0 0 1-1.176-.798l-4.857-12.15-12.142-4.86a1.264 1.264 0 0 1-.592-1.902c.146-.211.352-.373.592-.464h.038Z"/></svg>