<svg xmlns="http://www.w3.org/2000/svg" width="20" height="20" fill="none"><g fill-rule="evenodd" clip-path="url(#a)" clip-rule="evenodd"><path fill="#BD2304" d="M15.716 17.565V11l-5.673 3.274v-4.017l5.673-3.288 3.497 2.019v6.564l-3.497 2.012Z"/><path fill="#DC2400" d="M3.757 12.757V6.97l5.002-2.886 2.498 1.443 3.483-2.012L8.76.06.26 4.958v9.81l8.5 4.9v-4.025l-5.003-2.886Z"/><path fill="#DC2400" d="M10.041 14.273 15.716 11l3.49-2.02-3.49-2.011-5.675 3.285v4.018Z"/><path fill="#BD2304" d="M.26 4.958v9.81l8.5 4.9v-4.025l-5.003-2.886V6.97L.26 4.958Z"/></g><defs><clipPath id="a"><path fill="#fff" d="M0 0h19.608v20H0z"/></clipPath></defs></svg>