<svg xmlns="http://www.w3.org/2000/svg" width="64" height="64" fill="none"><rect width="62.632" height="62.632" x=".922" y=".631" fill="url(#a)" rx="8.816"/><g fill-rule="evenodd" clip-path="url(#b)" clip-rule="evenodd"><path fill="#FAD5CE" d="M42.739 45.707V34.133l-10.004 5.773v-7.083l10.004-5.797 6.165 3.56v11.573l-6.166 3.548Z"/><path fill="#fff" d="M21.653 37.229V27.026l8.82-5.09 4.404 2.545 6.142-3.547-10.546-6.093-14.986 8.637v17.298l14.986 8.637v-7.095l-8.82-5.09Z"/><path fill="#fff" d="m32.733 39.902 10.006-5.769 6.154-3.56-6.154-3.547-10.006 5.793v7.083Z"/><path fill="#FAD5CE" d="M15.487 23.478v17.298l14.986 8.637v-7.095l-8.82-5.09V27.026l-6.166-3.548Z"/></g><defs><linearGradient id="a" x1="8.562" x2="55.58" y1="2.395" y2="62.048" gradientUnits="userSpaceOnUse"><stop stop-color="#DC2400"/><stop offset="1" stop-color="#BD2304"/></linearGradient><clipPath id="b"><path fill="#fff" d="M15.027 14.736H49.6V50H15.027z"/></clipPath></defs></svg>