<svg xmlns="http://www.w3.org/2000/svg" width="64" height="63" fill="none"><rect width="62.632" height="62.632" x=".667" fill="#007DFC" rx="10.64"/><g fill="#fff" clip-path="url(#a)"><path d="M41.905 30.875c0 6.526-3.204 12.261-8.148 15.821 7.752-1.107 13.725-7.792 13.725-15.821 0-8.069-5.973-14.714-13.725-15.821 4.904 3.52 8.148 9.295 8.148 15.821Z"/><path d="M26.716 46.063a14.01 14.01 0 0 0 3.401.673c4.312-3.955 7.001-9.612 7.001-15.9 0-6.29-2.729-11.946-7-15.861a18.507 18.507 0 0 0-3.402.672c3.639 3.995 5.854 9.335 5.854 15.228 0 5.893-2.215 11.194-5.854 15.188Z"/><path d="M15.563 30.876a15.828 15.828 0 0 0 7.04 13.21c3.52-3.322 5.735-8.029 5.735-13.21 0-5.221-2.215-9.928-5.735-13.211-4.272 2.848-7.04 7.673-7.04 13.21Z"/></g><defs><clipPath id="a"><path fill="#fff" d="M15.563 14.896H47.48v31.919H15.562z"/></clipPath></defs></svg>