<svg xmlns="http://www.w3.org/2000/svg" width="62" height="64" fill="none"><rect width="61.737" height="62.632" x=".185" y=".631" fill="#1C3CF1" rx="8.816"/><g fill="#fff" clip-path="url(#a)"><path d="M39.468 20.341a3.238 3.238 0 1 0-4.996-4.066c-.154.154-17.932 22.065-18.053 22.247a3.238 3.238 0 1 0 4.996 4.066c.154-.154 17.932-22.064 18.053-22.247Zm3.915 11.929a3.238 3.238 0 1 0-4.994-4.067c-.156.155-12.233 15.093-12.354 15.277a3.238 3.238 0 1 0 4.994 4.068c.155-.156 12.233-15.093 12.354-15.277Zm3.82-6.588a3.238 3.238 0 1 0 0-6.475 3.238 3.238 0 0 0 0 6.475Zm-27.148-.003a3.238 3.238 0 1 0 0-6.476 3.238 3.238 0 0 0 0 6.476Z"/></g><defs><clipPath id="a"><path fill="#fff" d="M15.172 14.737h35.263V50H15.172z"/></clipPath></defs></svg>