<svg xmlns="http://www.w3.org/2000/svg" width="67" height="51" fill="none"><path fill="#FE8C59" d="M16.639 34.011c0-9.027 7.318-16.346 16.345-16.346h16.692c9.027 0 16.345 7.319 16.345 16.346 0 9.028-7.318 16.346-16.345 16.346H32.984c-9.027 0-16.346-7.318-16.346-16.346Z"/><path fill="#fff" d="M37.722 27.19h1.928v9.09c0 .822-.163 1.525-.488 2.11a3.26 3.26 0 0 1-1.359 1.34c-.584.304-1.268.457-2.053.457-.722 0-1.371-.132-1.947-.395a3.204 3.204 0 0 1-1.359-1.146c-.33-.505-.494-1.118-.494-1.84h1.922c0 .355.081.661.244.92.167.259.394.461.682.607.292.142.626.213 1.002.213.409 0 .755-.085 1.04-.257.287-.175.506-.431.657-.77.15-.338.225-.75.225-1.24v-9.09Zm9.551 0h1.928v9.09c0 .822-.163 1.525-.488 2.11a3.259 3.259 0 0 1-1.359 1.34c-.584.304-1.268.457-2.053.457-.722 0-1.371-.132-1.947-.395a3.203 3.203 0 0 1-1.359-1.146c-.33-.505-.494-1.118-.494-1.84h1.922c0 .355.081.661.244.92.167.259.394.461.682.607.293.142.626.213 1.002.213.41 0 .755-.085 1.04-.257.287-.175.506-.431.657-.77.15-.338.225-.75.225-1.24v-9.09Z"/><path fill="#FE8C59" d="M23.484 8.093 1.949.258A.978.978 0 0 0 .697 1.51l7.83 21.549a.98.98 0 0 0 1.83.029l3.76-9.403 9.396-3.761a.98.98 0 0 0 0-1.832h-.03Z"/></svg>