<svg xmlns="http://www.w3.org/2000/svg" width="21" height="20" fill="none"><rect width="19.714" height="20" x=".607" fill="#1C3CF1" rx="2.815"/><g fill="#fff" clip-path="url(#a)"><path d="M13.152 6.294a1.034 1.034 0 1 0-1.595-1.298c-.05.05-5.726 7.046-5.765 7.104a1.034 1.034 0 1 0 1.595 1.298c.05-.049 5.727-7.045 5.765-7.104Zm1.25 3.81a1.034 1.034 0 1 0-1.595-1.299c-.05.05-3.906 4.82-3.945 4.878a1.034 1.034 0 1 0 1.595 1.299c.05-.05 3.906-4.82 3.945-4.878ZM15.622 8a1.034 1.034 0 1 0 0-2.068 1.034 1.034 0 0 0 0 2.067Zm-8.669-.002a1.034 1.034 0 1 0 0-2.067 1.034 1.034 0 0 0 0 2.067Z"/></g><defs><clipPath id="a"><path fill="#fff" d="M5.394 4.504h11.26v11.261H5.395z"/></clipPath></defs></svg>