<svg xmlns="http://www.w3.org/2000/svg" width="70" height="28" fill="none"><path fill="#1B5BBC" d="M8.695 18.484a8.992 8.992 0 0 1 8.992-8.992h42.985a8.992 8.992 0 1 1 0 17.985H17.688a8.992 8.992 0 0 1-8.993-8.993Z"/><path fill="#fff" d="M17.445 14.516h1.276l2.219 5.417h.081l2.219-5.417h1.276v6.968h-1v-5.042h-.065l-2.056 5.032h-.83L18.51 16.44h-.064v5.045h-1v-6.968Zm9.943 7.084c-.332 0-.631-.061-.899-.184a1.513 1.513 0 0 1-.636-.54c-.154-.237-.231-.526-.231-.868 0-.295.056-.538.17-.728.113-.191.266-.342.46-.453a2.4 2.4 0 0 1 .646-.252c.238-.056.48-.1.728-.129l.762-.088c.195-.026.337-.065.425-.12.089-.054.133-.142.133-.265v-.024c0-.297-.084-.527-.252-.69-.165-.164-.413-.245-.742-.245-.342 0-.612.076-.81.227a1.22 1.22 0 0 0-.404.5l-.956-.217c.113-.318.279-.574.496-.77.22-.196.473-.34.76-.428.285-.09.585-.136.9-.136.21 0 .43.025.664.075.236.048.456.136.66.265.207.13.376.314.507.555.132.238.198.548.198.929v3.47h-.994v-.714h-.04c-.067.131-.165.26-.297.388-.131.127-.3.232-.507.316a1.967 1.967 0 0 1-.741.126Zm.22-.817c.282 0 .523-.055.722-.166.202-.111.355-.257.46-.436a1.13 1.13 0 0 0 .16-.582v-.673a.53.53 0 0 1-.212.102 3.2 3.2 0 0 1-.35.078l-.385.058-.313.04a2.524 2.524 0 0 0-.54.127.93.93 0 0 0-.388.255.638.638 0 0 0-.143.435c0 .252.093.443.279.572.186.127.423.19.71.19Zm3.618.701v-5.226h.983v.83h.055c.095-.28.263-.502.503-.663.243-.163.517-.245.824-.245a4.391 4.391 0 0 1 .432.024v.973a1.831 1.831 0 0 0-.218-.038 2.076 2.076 0 0 0-.313-.023c-.24 0-.455.05-.643.153a1.138 1.138 0 0 0-.606 1.024v3.191h-1.017Zm4.517-1.772-.007-1.242h.177l2.082-2.212h1.219l-2.375 2.518h-.16l-.936.936Zm-.936 1.772v-6.968h1.018v6.968h-1.018Zm3.3 0-1.87-2.483.7-.712 2.42 3.195h-1.25Zm5.51 0-1.537-5.226h1.051l1.024 3.838h.051l1.028-3.838h1.051l1.021 3.821h.051l1.017-3.82h1.052l-1.535 5.225h-1.038l-1.061-3.773h-.078l-1.062 3.773h-1.034Zm8.72.106c-.49 0-.917-.112-1.282-.337a2.271 2.271 0 0 1-.85-.942c-.203-.404-.303-.876-.303-1.416 0-.542.1-1.016.302-1.422.202-.406.486-.721.851-.946.365-.225.793-.337 1.283-.337.49 0 .917.112 1.282.337.366.224.65.54.851.946.202.406.303.88.303 1.422 0 .54-.101 1.012-.303 1.416a2.271 2.271 0 0 1-.85.942c-.366.225-.793.337-1.283.337Zm.004-.854c.318 0 .58-.084.79-.252a1.48 1.48 0 0 0 .462-.67c.102-.28.153-.587.153-.922 0-.334-.05-.64-.153-.919a1.497 1.497 0 0 0-.463-.677c-.208-.17-.471-.255-.789-.255-.32 0-.585.085-.796.255a1.52 1.52 0 0 0-.466.677c-.1.279-.15.585-.15.919 0 .335.05.643.15.922.102.279.257.502.466.67.21.168.476.252.796.252Zm4.49-6.22v6.968h-1.017v-6.968h1.017Zm3.76 1.742v.817h-2.953v-.817h2.953Zm-2.144 5.226v-5.832c0-.326.072-.597.215-.813.143-.217.332-.38.568-.486.236-.11.492-.163.769-.163a2.394 2.394 0 0 1 .847.139l-.238.823a4.978 4.978 0 0 0-.184-.047 1.048 1.048 0 0 0-.272-.03c-.247 0-.424.06-.53.183-.105.122-.157.3-.157.53v5.696h-1.018Z"/><path fill="#1B5BBC" d="M12.416 4.29.712.032a.532.532 0 0 0-.68.68l4.255 11.712a.532.532 0 0 0 .995.016l2.043-5.11 5.107-2.044a.532.532 0 0 0 0-.996h-.016Z"/></svg>