<svg xmlns="http://www.w3.org/2000/svg" width="64" height="63" fill="none"><rect width="62.632" height="62.632" x=".93" fill="#0D3132" rx="10.64"/><g fill-rule="evenodd" clip-path="url(#a)" clip-rule="evenodd"><path fill="#129B9C" d="M33.163 45.895c6.634 0 12.517-4.38 14.395-10.765-.751.125-1.628.125-2.379.125a16.253 16.253 0 0 1-12.016-5.257 16.253 16.253 0 0 1-12.017 5.257c-.751 0-1.627 0-2.378-.125 2.002 6.51 7.76 10.765 14.395 10.765Z"/><path fill="#69C5C5" d="M45.18 32.376c1 0 2.002-.125 3.004-.375v-1.127c0-6.634-4.382-12.517-10.765-14.395.125.751.125 1.627.125 2.378 0 3.255-1.002 6.384-2.629 9.013 2.629 2.754 6.259 4.506 10.264 4.506Zm-24.034 0c4.005 0 7.635-1.752 10.139-4.631a16.47 16.47 0 0 1-2.629-8.888c0-.75 0-1.627.125-2.378-6.258 1.878-10.64 7.76-10.64 14.395v1.127c1.002.25 2.003.375 3.005.375Z"/><path fill="#129B9C" d="M33.163 25.116c1.002-1.877 1.502-4.005 1.502-6.258 0-1.002-.125-2.003-.375-3.005h-2.253a12.348 12.348 0 0 0-.376 3.005c0 2.253.626 4.38 1.502 6.258Z"/></g><defs><clipPath id="a"><path fill="#fff" d="M16.89 14.896h31.919v31.919h-31.92z"/></clipPath></defs></svg>