<svg xmlns="http://www.w3.org/2000/svg" width="64" height="63" fill="none"><rect width="62.632" height="62.632" x=".562" fill="#442781" rx="7.714"/><g fill="#fff" clip-path="url(#a)"><path fill-opacity=".5" d="M30.8 41.304a8.022 8.022 0 1 1-6.788-12.3c2.938 0 5.4 1.619 6.788 3.892-1.583 2.608-1.698 5.909 0 8.408Z"/><path fill-opacity=".9" d="M38.813 29.004a8.022 8.022 0 1 1-6.834 12.275c-1.557-2.492-1.49-5.438-.296-7.82 3.05-.039 5.91-1.69 7.13-4.455Z"/><path fill-opacity=".3" d="M24.25 27.672a8.022 8.022 0 1 1 14.041.45c-1.5 2.526-4.15 3.816-6.813 3.846-1.433-2.693-4.211-4.478-7.228-4.296Z"/></g><defs><clipPath id="a"><path fill="#fff" d="M15.99 15.428h30.854v30.855H15.99z"/></clipPath></defs></svg>