<svg xmlns="http://www.w3.org/2000/svg" width="20" height="20" fill="none"><g clip-path="url(#a)"><mask id="b" width="20" height="20" x="0" y="0" maskUnits="userSpaceOnUse" style="mask-type:luminance"><path fill="#fff" d="M20 0H0v20h20V0Z"/></mask><g mask="url(#b)"><path fill="#F44336" d="m7.863 1.942-7.5.975A.417.417 0 0 0 0 3.333v5.834c0 .23.187.416.417.416h7.5c.23 0 .416-.186.416-.416V2.355a.417.417 0 0 0-.47-.413Z"/><path fill="#7FBA00" d="M19.859.521a.416.416 0 0 0-.329-.104l-10 1.304a.417.417 0 0 0-.363.417v7.029c0 .23.187.417.417.417h10c.23 0 .416-.187.416-.417V.834a.417.417 0 0 0-.14-.314Z"/><path fill="#2196F3" d="M7.917 10.417h-7.5a.417.417 0 0 0-.417.417v5.833c-.002.21.154.39.363.417l7.5.978a.395.395 0 0 0 .054 0c.23 0 .416-.187.416-.417v-6.811a.417.417 0 0 0-.416-.417Z"/><path fill="#FFC107" d="M19.584 10.417h-10a.417.417 0 0 0-.417.417v7.029c-.002.21.154.39.363.416l10 1.305a.395.395 0 0 0 .054 0c.23 0 .416-.187.416-.417v-8.333a.417.417 0 0 0-.416-.417Z"/></g></g><defs><clipPath id="a"><path fill="#fff" d="M0 0h20v20H0z"/></clipPath></defs></svg>