<svg xmlns="http://www.w3.org/2000/svg" width="117" height="40" fill="none"><path fill="#D7CFFF" d="M9.768 32.121c-1.894 0-4.277-2.863-5.28-6.363l-4.2-15.254c-.93-3.5.465-3.5 3.155 0l12.474 15.254c3.028 3.5 4 6.363 2.106 6.363H9.768Z"/><path fill="#D7CFFF" d="M18.939 32.121c1.894 0 4.276-2.863 5.279-6.363l4.2-15.254c.931-3.5-.465-3.5-3.154 0L12.79 25.758c-3.029 3.5-4.001 6.363-2.107 6.363h8.256Z"/><path fill="#9785F4" d="M9.788 32.121c-1.895 0-3.444-2.863-3.428-6.363l.277-15.254c.111-3.5 1.764-3.5 3.642 0l7.978 15.254c1.784 3.5 1.68 6.363-.214 6.363H9.788Z"/><path fill="#9785F4" d="M18.52 32.121c1.894 0 3.443-2.863 3.427-6.363l-.277-15.254c-.11-3.5-1.764-3.5-3.642 0L10.05 25.758c-1.784 3.5-1.68 6.363.214 6.363h8.256Z"/><path fill="#5235EF" d="M10.08 32.121c-1.895 0-2.67-2.863-1.723-6.363l4.128-15.254c.947-3.5 2.497-3.5 3.444 0l4.128 15.254c.947 3.5.172 6.363-1.722 6.363h-8.256Z"/><path fill="#101011" d="M33.585 31V10.394h7.909c6.515 0 10.576 3.909 10.576 10.333S48.01 31 41.494 31h-7.91Zm7.909-3.94c3.545 0 5.606-2.333 5.606-6.333 0-4.03-2.06-6.394-5.606-6.394h-3.06v12.728h3.06ZM54.826 31V14.697h4.636v2.273c1.03-1.94 2.606-2.788 4.273-2.788.667 0 1.273.182 1.606.515v3.91a8.289 8.289 0 0 0-1.848-.183c-2.788 0-4.03 1.576-4.03 4.152V31h-4.637Zm16.797-10.91h-4.636c.484-3.666 3.303-5.908 7.484-5.908 4.667 0 7.091 2.727 7.091 6.515v6.242c0 2.122.182 3.212.455 4.061h-4.788c-.151-.546-.242-1.242-.273-2.03-1.273 1.757-3.212 2.515-5.151 2.515-3.091 0-5.394-1.576-5.394-4.697 0-2.212 1.272-3.91 3.848-4.818 2.121-.697 4.152-.91 6.667-.94v-.363c0-1.788-.879-2.728-2.667-2.728-1.576 0-2.424.88-2.636 2.152Zm-.576 6.395c0 1.09.818 1.788 2.182 1.788 2.06 0 3.697-1.667 3.697-3.91v-.636c-4.697.091-5.879 1.243-5.879 2.758Zm12.392-8.273v-3.515h1.97v-.212c0-3.818 1.817-5.788 5-5.788 1.181 0 2.03.212 2.484.424v2.94h-.333c-2.03 0-2.515.848-2.515 2.454v.182h2.848v3.515h-2.848V31h-4.637V18.212h-1.97Zm11.736 7.485v-7.485h-2v-3.515h2v-3.788h4.637v3.788h3.333v3.515h-3.333v6.91c0 1.575.424 2.454 2.424 2.454h.879v3.485c-.516.242-1.546.424-2.788.424-3.485 0-5.152-2-5.152-5.788ZM105.223 31V14.697h4.636v2.273c1.03-1.94 2.606-2.788 4.273-2.788.666 0 1.272.182 1.606.515v3.91a8.293 8.293 0 0 0-1.849-.183c-2.788 0-4.03 1.576-4.03 4.152V31h-4.636Z"/></svg>