<svg xmlns="http://www.w3.org/2000/svg" width="81" height="27" fill="none"><path fill="#6E4C03" d="M0 17.484a8.992 8.992 0 0 1 8.992-8.992h50.985a8.992 8.992 0 0 1 0 17.985H8.992A8.992 8.992 0 0 1 0 17.484Z"/><path fill="#fff" d="M8.75 20.484v-6.968h4.369v.905H9.8v2.123h3.09v.902H9.8v2.133h3.358v.905H8.75Zm5.596 0v-5.226h.976v.85h.065a1.35 1.35 0 0 1 .534-.673c.247-.163.543-.245.888-.245.35 0 .642.082.878.245.238.163.414.388.527.674h.055a1.47 1.47 0 0 1 .595-.667c.272-.168.597-.252.973-.252.474 0 .861.149 1.16.446.302.297.453.745.453 1.344v3.504h-1.017v-3.409c0-.354-.097-.61-.29-.769a1.052 1.052 0 0 0-.69-.238c-.331 0-.589.102-.773.306-.183.202-.275.462-.275.78v3.33H17.39V17.01c0-.283-.089-.511-.266-.683-.177-.173-.407-.259-.69-.259a.989.989 0 0 0-.534.153c-.162.1-.292.24-.392.419a1.284 1.284 0 0 0-.146.622v3.222h-1.017Zm8.372 0v-5.226h1.017v5.226h-1.017Zm.514-6.032a.647.647 0 0 1-.456-.177.576.576 0 0 1-.188-.429.57.57 0 0 1 .188-.429.64.64 0 0 1 .456-.18.63.63 0 0 1 .452.18c.127.118.19.261.19.43a.57.57 0 0 1-.19.428.635.635 0 0 1-.453.177Zm2.793-.936v6.968h-1.017v-6.968h1.017Zm1.916 8.928a2.126 2.126 0 0 1-.694-.112l.245-.834c.186.05.352.072.497.065a.595.595 0 0 0 .384-.163c.114-.102.213-.27.3-.5l.126-.348-1.913-5.294h1.09l1.323 4.056h.054l1.324-4.056h1.092l-2.154 5.924a2.39 2.39 0 0 1-.38.69 1.48 1.48 0 0 1-.552.43c-.213.095-.46.142-.742.142Zm7.21-1.96v-6.968h1.017v2.59h.061a2.84 2.84 0 0 1 .255-.378c.112-.143.266-.268.463-.375.198-.108.458-.163.783-.163.422 0 .798.107 1.13.32.33.213.59.52.779.922.19.402.285.885.285 1.45 0 .564-.094 1.049-.282 1.452a2.203 2.203 0 0 1-.776.93 2.009 2.009 0 0 1-1.126.322c-.318 0-.577-.053-.78-.16a1.474 1.474 0 0 1-.469-.374c-.113-.143-.2-.27-.262-.38h-.085v.812h-.993Zm.997-2.613c0 .368.053.69.16.967.106.276.26.493.462.65.202.154.45.23.742.23.304 0 .558-.08.762-.24.204-.164.359-.385.463-.664.106-.28.16-.593.16-.943 0-.345-.052-.654-.157-.929a1.422 1.422 0 0 0-.462-.65c-.205-.158-.46-.238-.766-.238-.295 0-.544.076-.748.228a1.4 1.4 0 0 0-.46.637c-.104.272-.156.59-.156.952Zm4.823 2.613v-5.226h.983v.83h.055c.095-.28.263-.502.503-.663.243-.163.517-.245.824-.245a4.388 4.388 0 0 1 .432.024v.973a1.83 1.83 0 0 0-.218-.038 2.074 2.074 0 0 0-.313-.023c-.24 0-.455.05-.643.153a1.138 1.138 0 0 0-.606 1.024v3.191h-1.017Zm5.596.106c-.49 0-.918-.112-1.283-.337a2.271 2.271 0 0 1-.85-.942c-.203-.404-.303-.876-.303-1.416 0-.542.1-1.016.302-1.422.202-.406.486-.721.85-.946.366-.225.794-.337 1.284-.337s.917.112 1.282.337c.366.225.65.54.851.946.202.406.303.88.303 1.422 0 .54-.101 1.012-.303 1.416a2.271 2.271 0 0 1-.85.942c-.366.225-.793.337-1.283.337Zm.003-.854c.318 0 .58-.084.79-.252a1.48 1.48 0 0 0 .462-.67c.102-.28.153-.587.153-.922 0-.334-.05-.64-.153-.919a1.498 1.498 0 0 0-.463-.677c-.208-.17-.471-.255-.789-.255-.32 0-.585.085-.796.255a1.52 1.52 0 0 0-.466.677c-.1.279-.15.585-.15.919 0 .335.05.643.15.922.102.279.257.502.466.67.21.168.476.252.796.252Zm5.674.854c-.49 0-.918-.112-1.283-.337a2.271 2.271 0 0 1-.85-.942c-.202-.404-.303-.876-.303-1.416 0-.542.1-1.016.303-1.422a2.27 2.27 0 0 1 .85-.946c.365-.225.793-.337 1.283-.337.49 0 .917.112 1.283.337.365.225.648.54.85.946.202.406.303.88.303 1.422 0 .54-.1 1.012-.303 1.416a2.271 2.271 0 0 1-.85.942c-.366.225-.793.337-1.283.337Zm.003-.854c.318 0 .581-.084.79-.252.208-.168.363-.391.462-.67a2.65 2.65 0 0 0 .154-.922c0-.334-.051-.64-.154-.919a1.497 1.497 0 0 0-.462-.677c-.209-.17-.472-.255-.79-.255-.32 0-.585.085-.796.255a1.52 1.52 0 0 0-.466.677c-.1.279-.15.585-.15.919 0 .335.05.643.15.922.102.279.258.502.466.67.211.168.477.252.796.252Zm4.409-1.024-.007-1.242h.177l2.082-2.212h1.218l-2.375 2.518h-.16l-.935.936Zm-.936 1.772v-6.968h1.017v6.968H55.72Zm3.3 0-1.871-2.483.7-.712 2.42 3.195H59.02Z"/><path fill="#6E4C03" d="M67.664 4.29 79.368.032a.532.532 0 0 1 .68.68l-4.255 11.712a.532.532 0 0 1-.995.016l-2.043-5.11-5.107-2.044a.532.532 0 0 1 0-.996h.016Z"/></svg>