<svg xmlns="http://www.w3.org/2000/svg" width="100" height="100" fill="none"><rect width="99" height="99" x=".5" y=".5" fill="url(#a)" stroke="#5235EF" rx="14.5"/><path fill="#8B76F9" d="M40.146 75c-3.907 0-8.82-5.906-10.889-13.125l-8.662-31.46c-1.921-7.22.958-7.22 6.505 0l25.728 31.46C59.074 69.094 61.08 75 57.173 75H40.146Z"/><path fill="#8B76F9" d="M59.061 75c3.907 0 8.821-5.906 10.889-13.125l8.662-31.461c1.921-7.219-.958-7.219-6.505 0L46.379 61.875C40.133 69.094 38.128 75 42.034 75h17.027Z"/><path fill="#B2A5FA" d="M40.186 75c-3.907 0-7.102-5.906-7.069-13.125l.572-31.46c.228-7.22 3.637-7.22 7.51 0l16.456 31.46C61.332 69.094 61.12 75 57.212 75H40.186Z"/><path fill="#B2A5FA" d="M58.197 75c3.907 0 7.102-5.906 7.069-13.125l-.572-31.46c-.228-7.22-3.637-7.22-7.51 0l-16.456 31.46C37.05 69.094 37.264 75 41.17 75h17.027Z"/><path fill="#fff" d="M40.79 75c-3.907 0-5.505-5.906-3.552-13.125l8.513-31.46c1.954-7.22 5.15-7.22 7.104 0l8.513 31.46C63.32 69.094 61.723 75 57.816 75H40.79Z"/><defs><linearGradient id="a" x1="43.166" x2="48.822" y1="0" y2="99.7" gradientUnits="userSpaceOnUse"><stop stop-color="#5235EF"/><stop offset="1" stop-color="#8771FF"/></linearGradient></defs></svg>